:SAMPLES-PER-SECOND 24
:FULLY-SPECIFIED
:DEGREES
260
root  -5.2538 39.5808 27.1368 171.653 -18.6555 178.112
RightUpLeg  -3.50441 -19.1541 -8.80564
RightLeg  21.9175 -5.86034 -2.80775
RightFoot  -12.0639 -0.0816523 -0.044149
RightToes  -1.74623e-010 0 -2.59999e-017
Spine  9.3235 0.625335 4.94553
Spine1  14.1407 1.22059 0.137102
HEad  -1.40507 -14.8632 3.71836
LeftShoulder1  2.08704 -3.78507 -22.3224
LeftArm  23.703 2.67643 -50.5824
LeftForeArm  103.484 -80.3825 -92.9562
LeftHand  -0.0469808 6.00373 -2.16157
RightShoulder  2.96453 5.35116 27.5068
RightArm  -1.84112 -8.00097 33.4275
RightForeArm  128.059 79.3025 116.887
RightHand  -0.045574 -11.0373 -0.274081
LeftUpLeg  -5.17645 16.3903 8.91914
LeftLeg  31.588 0.845953 0.908617
LeftFoot  0.00352185 0.588002 -5.89589
LeftToes  -6.27559e-011 -2.10356e-011 8.24929e-012
261
root  -5.3585 39.6139 28.1643 171.538 -20.8333 178.149
RightUpLeg  -4.08249 -18.993 -9.14806
RightLeg  20.8462 -7.43882 -3.33287
RightFoot  -10.6004 -0.0670976 -0.728257
RightToes  -1.74623e-010 0 -2.59999e-017
Spine  8.45961 -0.00095196 3.30169
Spine1  14.309 0.0463707 1.36202
HEad  -1.62733 -15.5698 4.73124
LeftShoulder1  2.08917 -3.66952 -22.8412
LeftArm  22.4381 2.78181 -51.0751
LeftForeArm  117.771 -80.0111 -106.692
LeftHand  -0.0579585 6.82641 -1.53147
RightShoulder  2.99858 5.35462 27.8909
RightArm  -2.88711 -9.42399 32.7574
RightForeArm  119.582 80.0991 106.895
RightHand  0.0239723 -10.2733 -1.74755
LeftUpLeg  -0.452388 12.3375 10.1075
LeftLeg  34.5791 0.535102 0.754894
LeftFoot  -1.13944 0.588968 -6.49691
LeftToes  -6.27559e-011 -2.10356e-011 8.24929e-012
262
root  -5.52831 39.5569 29.2459 171.539 -23.9 178.419
RightUpLeg  -4.78456 -20.2879 -9.79365
RightLeg  20.0914 -7.99445 -3.43545
RightFoot  -9.13503 -0.0320896 -1.54433
RightToes  -1.74623e-010 0 -2.59999e-017
Spine  7.54166 -1.12891 1.31165
Spine1  14.5925 -1.74619 2.69618
HEad  -2.39093 -15.8593 6.09576
LeftShoulder1  2.07374 -3.61745 -22.8366
LeftArm  21.5344 2.01289 -52.0359
LeftForeArm  123.422 -79.6409 -112.564
LeftHand  -0.0343002 7.70928 0.363098
RightShoulder  3.02542 5.31425 28.3651
RightArm  -4.33123 -10.6159 33.1222
RightForeArm  88.7928 80.1982 77.0642
RightHand  0.0905525 -8.15424 -5.35412
LeftUpLeg  4.13438 6.26027 10.3037
LeftLeg  33.72 -1.1193 -0.445238
LeftFoot  -3.18534 0.714732 -9.74104
LeftToes  -6.27559e-011 -2.10356e-011 8.24929e-012
263
root  -5.75863 39.4581 30.4114 172.294 -26.3547 178.396
RightUpLeg  -6.60063 -21.717 -10.6005
RightLeg  19.6202 -7.97277 -3.35265
RightFoot  -7.50571 0.0241262 -2.24446
RightToes  -1.74623e-010 0 -2.59999e-017
Spine  6.68116 -1.94039 -0.881637
Spine1  14.2161 -3.18616 3.63728
HEad  -3.05138 -15.8112 6.96944
LeftShoulder1  2.03166 -3.51741 -22.6415
LeftArm  21.7185 -0.0381471 -52.861
LeftForeArm  116.896 -79.8213 -108.128
LeftHand  0.0233122 7.90968 2.89714
RightShoulder  3.04854 5.29899 28.6968
RightArm  -5.40001 -11.3479 34.05
RightForeArm  45.8876 74.9836 40.7009
RightHand  -0.102152 -4.49368 -11.0433
LeftUpLeg  7.8873 3.36878 9.69059
LeftLeg  27.5848 -4.28676 -2.08128
LeftFoot  -7.78653 0.404655 -11.317
LeftToes  -6.27559e-011 -2.10356e-011 8.24929e-012
264
root  -5.95303 39.3333 31.7851 173.828 -27.8678 177.873
RightUpLeg  -9.67598 -22.4233 -11.3421
RightLeg  19.3241 -8.10195 -3.38377
RightFoot  -5.90735 0.0744344 -2.41479
RightToes  -1.74623e-010 0 -2.59999e-017
Spine  6.43599 -2.1061 -4.072
Spine1  13.8055 -4.2368 5.53451
HEad  -4.84892 -15.5095 7.96576
LeftShoulder1  2.0058 -3.32771 -23.0901
LeftArm  22.401 -3.85436 -52.9288
LeftForeArm  102.964 -80.2384 -94.9665
LeftHand  0.0487902 7.76688 4.02717
RightShoulder  3.12889 5.36254 29.3707
RightArm  -5.82062 -9.36984 34.2685
RightForeArm  17.4335 63.2343 21.3832
RightHand  -0.558647 -0.816829 -14.301
LeftUpLeg  8.16634 5.31529 8.20921
LeftLeg  21.4934 -5.87416 -2.22835
LeftFoot  -11.73 0.0424167 -9.32909
LeftToes  -6.27559e-011 -2.10356e-011 8.24929e-012
265
root  -6.03356 39.2938 33.3435 175.052 -28.902 177.948
RightUpLeg  -11.8324 -21.4883 -11.4067
RightLeg  16.9382 -7.02465 -2.31941
RightFoot  -5.59348 0.0609864 -2.00096
RightToes  -1.74623e-010 0 -2.59999e-017
Spine  6.84357 -1.77529 -6.75715
Spine1  14.6249 -4.88911 8.13124
HEad  -8.36224 -15.381 10.134
LeftShoulder1  1.98889 -3.27804 -23.0506
LeftArm  22.1297 -8.01038 -53.3303
LeftForeArm  93.4992 -80.3756 -80.3567
LeftHand  -0.0100896 8.55313 1.27873
RightShoulder  3.2569 5.47641 30.3679
RightArm  -6.36469 -4.64757 34.7218
RightForeArm  1.84882 46.1079 11.6141
RightHand  -0.842057 1.33073 -14.6734
LeftUpLeg  4.87049 6.83404 6.37314
LeftLeg  20.4484 -4.83108 -1.6571
LeftFoot  -12.5301 0.00555288 -6.5832
LeftToes  -6.27559e-011 -2.10356e-011 8.24929e-012
266
root  -6.05238 39.376 34.8059 175.261 -28.4606 179.008
RightUpLeg  -11.7475 -15.5543 -11.5558
RightLeg  11.867 -8.53764 0.134656
RightFoot  -6.80818 -0.0747479 0.720924
RightToes  -1.74623e-010 0 -2.59999e-017
Spine  7.45903 -0.764304 -6.77636
Spine1  15.66 -4.11005 8.79748
HEad  -10.7126 -16.0069 12.2696
LeftShoulder1  1.94185 -3.43761 -21.6207
LeftArm  20.8188 -9.67057 -54.25
LeftForeArm  93.2956 -80.4191 -71.9693
LeftHand  -0.184646 10.0459 -3.08219
RightShoulder  3.26805 5.52688 30.2878
RightArm  -4.8453 -0.999768 37.1841
RightForeArm  -7.05855 27.016 6.18055
RightHand  -1.04641 1.7541 -17.0878
LeftUpLeg  1.95249 6.58856 5.66888
LeftLeg  20.8495 -3.82845 -1.27671
LeftFoot  -12.1553 0.0306258 -5.93098
LeftToes  -6.27559e-011 -2.10356e-011 8.24929e-012
267
root  -6.04949 39.5518 36.0061 175.013 -26.693 -179.789
RightUpLeg  -10.8004 -10.795 -11.3117
RightLeg  7.25525 -13.0155 1.99098
RightFoot  -7.52179 -0.204973 4.55399
RightToes  -1.74623e-010 0 -2.59999e-017
Spine  7.64348 0.597006 -5.06641
Spine1  16.1912 -2.17594 7.50071
HEad  -10.1601 -17.2684 13.0031
LeftShoulder1  1.90859 -3.525 -20.7453
LeftArm  19.3893 -8.64367 -53.0519
LeftForeArm  97.3686 -80.6098 -72.3316
LeftHand  -0.337002 11.4649 -5.04804
RightShoulder  3.18935 5.54108 29.3416
RightArm  -20.379 -0.965357 38.9063
RightForeArm  7.02405 8.90469 10.4822
RightHand  -0.856694 -0.371589 -19.733
LeftUpLeg  1.0608 7.11449 5.77581
LeftLeg  18.9731 -3.17175 -0.929711
LeftFoot  -11.1965 0.0736942 -5.78858
LeftToes  -6.27559e-011 -2.10356e-011 8.24929e-012
268
root  -5.98545 39.8008 36.9778 174.778 -25.8236 -178.86
RightUpLeg  -10.1481 -12.7352 -10.3195
RightLeg  8.02561 -14.6358 1.98476
RightFoot  -6.91252 -0.283429 6.11182
RightToes  -1.74623e-010 0 -2.59999e-017
Spine  7.02644 1.4419 -3.84623
Spine1  17.2051 -0.945115 6.61141
HEad  -8.62434 -18.2155 13.0622
LeftShoulder1  1.90636 -3.3444 -21.4771
LeftArm  17.438 -6.20292 -48.8944
LeftForeArm  103.194 -80.8307 -79.9403
LeftHand  -0.343402 12.1546 -4.54974
RightShoulder  3.22983 5.61505 29.5016
RightArm  -23.9444 -3.84313 38.8497
RightForeArm  14.5796 0.358431 10.4172
RightHand  -0.327223 -3.08354 -15.0462
LeftUpLeg  0.581308 6.67828 5.7158
LeftLeg  16.5302 -1.44164 -0.471515
LeftFoot  -8.98727 0.154827 -4.97254
LeftToes  -6.27559e-011 -2.10356e-011 8.24929e-012
269
root  -5.80136 39.9854 37.7726 174.565 -26.5977 -178.37
RightUpLeg  -9.91007 -22.1644 -8.49091
RightLeg  14.0978 -3.1872 0.303194
RightFoot  -6.19575 -0.367463 7.22351
RightToes  -1.74623e-010 0 -2.59999e-017
Spine  6.11995 1.44085 -4.18811
Spine1  18.4806 -1.06024 6.59269
HEad  -7.56599 -18.2917 13.2598
LeftShoulder1  1.88427 -3.08932 -22.2608
LeftArm  13.9226 -1.73972 -43.9779
LeftForeArm  114.517 -80.8387 -93.8117
LeftHand  -0.299813 12.2158 -3.7933
RightShoulder  3.38207 5.70794 30.8204
RightArm  -20.3922 -8.86126 37.658
RightForeArm  19.5513 1.0192 10.8764
RightHand  -0.127507 -3.09674 -5.80186
LeftUpLeg  -0.534052 5.78378 5.68054
LeftLeg  15.7581 -1.42802 -0.595487
LeftFoot  -6.95563 0.224336 -4.75891
LeftToes  -6.27559e-011 -2.10356e-011 8.24929e-012
